# xmcd
#
# Track frame offsets: 
#        150
#        16409
#        33364
#        52357
#        66955
#        83214
#        101085
#        121899
#        138288
#        153418
#        169437
#
# Disc length: 2507 seconds
#
# Revision: 0
# Processed by: cddbd v1.5.2PL0 Copyright (c) Steve Scherf et al.
# Submitted via: ExactAudioCopyFreeDBPlugin 1.0
#
DISCID=9809c90b
DTITLE=Matteo Capreoli - Zuhause
DYEAR=2015
DGENRE=Hip Hop
TTITLE0=Zuhause
TTITLE1=Bus
TTITLE2=Frag mich
TTITLE3=Kann ich
TTITLE4=Heute nur bis morgen
TTITLE5=L. A. (feat. Samy Deluxe)
TTITLE6=Leid  - 101
TTITLE7=Neuer Tag
TTITLE8=Das Beste
TTITLE9=Die Zeit (der Alchemist)
TTITLE10=Landstreicher
EXTD=
EXTT0=
EXTT1=
EXTT2=
EXTT3=
EXTT4=
EXTT5=
EXTT6=
EXTT7=
EXTT8=
EXTT9=
EXTT10=
PLAYORDER=
